<svg width="507" height="574" viewBox="0 0 507 574" fill="none" xmlns="http://www.w3.org/2000/svg">
<path d="M239.675 3.84937C248.249 -1.01859 258.751 -1.01859 267.325 3.84937L379.867 67.7484L491.418 133.452C499.894 138.445 505.128 147.519 505.206 157.356L506.235 287L505.206 416.644C505.128 426.481 499.894 435.555 491.418 440.548L379.867 506.252L267.325 570.151C258.751 575.019 248.249 575.019 239.675 570.151L127.133 506.252L15.5825 440.548C7.10631 435.555 1.87185 426.481 1.79379 416.644L0.764999 287L1.79379 157.356C1.87185 147.519 7.10631 138.445 15.5825 133.452L127.133 67.7484L239.675 3.84937Z" fill="black"/>
</svg>
